<svg id="Layer_1" data-name="Layer 1" xmlns="http://www.w3.org/2000/svg" viewBox="0 0 493.21 226.36"><defs><style>.cls-1{fill:#f48534;}.cls-2{fill:#f48634;}.cls-3{fill:#fff;}.cls-4{fill:#289416;}.cls-5{fill:none;}.cls-6{fill:#fcfdfc;}.cls-7{fill:#fefefe;}</style></defs><title>near by grocer logo SVG</title><path class="cls-1" d="M846.22,367.29a20.06,20.06,0,0,1-4.8,2.84c-.31.12-.68.35-.61.67a.74.74,0,0,0,.22.33c4.5,4.48,9.34,8.8,13.58,13.53a1.7,1.7,0,0,1,.53,1.39c-.22,1.28-3,.77-3.91.77h-5.65a6.52,6.52,0,0,1-2.16-.22,6.92,6.92,0,0,1-2.73-2.15c-3.56-3.93-7.42-7.55-11.08-11.38-1.46-1.53-7.77-2.7-7.36.77.38,3.22,0,6.5.31,9.74a6.05,6.05,0,0,1,0,1.9c-.37,1.53-1.53,1.32-2.79,1.33-1.69,0-3.39.11-5.08,0-1.43-.07-1.57-.3-1.57-1.77,0-4.24,0-8.49,0-12.73,0-5.09,0-10.18,0-15.28,0-2.54,0-5.09,0-7.63,0-1.16-.53-6,2-4.37a20,20,0,0,1,3.22,3.15l4.17,4.2c2.39,2.41,4.84,4.76,7.2,7.2,1.76,1.81,3.85,3.14,6.5,2.48a10,10,0,0,0,3.72-2.08c2.49-2,5.1-5.25,5-8.66a12.21,12.21,0,0,0-5-9.58c-2.26-1.76-4.92-1.86-7.59-1.87H816.13a5.21,5.21,0,0,1-1.47-.11,1.84,1.84,0,0,1-1.6-2.11c.11-1.67,0-3.34,0-5,0-1.95.17-2.11,2-2.12,2.84,0,5.69.05,8.53,0,3-.06,6,0,9,0s5.41-.32,8.18,1c4.12,1.95,8.36,4.73,10.49,8.92a26.6,26.6,0,0,1,1.87,4.1A21.36,21.36,0,0,1,846.22,367.29Z" transform="translate(-453.06 -278.21)"/><path class="cls-1" d="M894.59,351.5a25.32,25.32,0,0,1,3,3.29c6.67,9.16,3.65,22.56-5.63,28.71l-.12.08a22.32,22.32,0,0,1-3.94,2.05c-3.12,1.25-5.95,1.16-9.23,1.06q-5.45-.18-10.89,0a59.6,59.6,0,0,1-6.25.26c-1.44-.13-1.7-1.12-1.7-2.43,0-1.58,0-3.16,0-4.74a1.47,1.47,0,0,1,1.35-1.69,33.83,33.83,0,0,1,5.51-.15c3.35-.13,6.69,0,10,0,3,0,6.53.18,9.12-1.57a13.3,13.3,0,0,0,1.57-1.33c2.13-2,4-4.2,4-7.3,0-.82,0-1.63,0-2.44,0-2.77-1.45-4.84-3.3-6.78a12.3,12.3,0,0,0-3.88-2.56c-2-.88-4.14-.66-6.28-.66-2.38,0-4.77,0-7.15,0-.84,0-1.11.22-1.22,1.13-.2,1.72-.07,3.42-.13,5.13-.05,1.43-.68,2-2.1,2-1.85,0-3.69.05-5.54,0-1.49,0-2-.46-2-1.93q0-14.57,0-29.13c0-1.58.33-1.86,1.95-1.86,7.07,0,14.15,0,21.22,0,3.44,0,7.21,3.8,8.69,6.64s1.72,7.31.35,10.06c-.89,1.78.71,2.53,1.92,3.69Z" transform="translate(-453.06 -278.21)"/><path class="cls-1" d="M783.89,368.85c-1,2.91-2.12,5.8-3.16,8.71-.52,1.45-1,2.91-1.53,4.37-.4,1.16-.62,2.43-1.05,3.56-.54,1.41-1.83,1.69-3.18,1.53-1.83-.22-3.8.05-5.6-.26a1.43,1.43,0,0,1-1.37-1.57,4.83,4.83,0,0,1,.44-1.61c4.47-11.25,8.39-22.74,12.34-34.18l1.83-5.07,2.61-7.26c.44-1.22,1.85-7.26,4-5.28,1,.94,1.12,2.63,1.57,3.86q.9,2.49,1.81,5l3.61,10,7.22,19.93L808,383.11c.47,1.3,1,3.65-1.05,3.72s-4.06.31-6,.26c-1.65,0-2.23-1.33-2.72-2.72l-2.79-7.78-3.51-9.81c-.68-1.89-1.28-3.8-1.9-5.71a14.75,14.75,0,0,0-1-2.95c-.73-1.21-1.39.17-1.65.91-1.06,3.07-2.15,6.12-3.25,9.18C784,368.42,784,368.64,783.89,368.85Z" transform="translate(-453.06 -278.21)"/><path class="cls-2" d="M934.91,335.11c.37-.76.73-1.53,1.1-2.3s.51-1.61,1.32-2.05a5.56,5.56,0,0,1,2.57-.27l4.63-.07c2.28,0,1.86,2.54,1.3,4-2.17,5.85-5.18,11.47-7.74,17.15q-2,4.43-4,8.86c-1.21,2.74-2.83,5.56-3.19,8.57a21.83,21.83,0,0,0-.1,2.68c0,4.29-.22,8.66.17,12.94.29,3.3-6.11,2.51-8.08,2.35a2.13,2.13,0,0,1-1.79-2.46c.25-3.61,0-7.22.2-10.82a20.15,20.15,0,0,0-.44-6.58c-.94-3.51-2.94-6.9-4.42-10.22l-5-11.16c-1.34-3-2.69-6.14-4-9.22a26.4,26.4,0,0,1-1.88-4.19c-.26-1.24,1.06-1.76,2.09-1.8,1.58-.07,3.17,0,4.76,0s2.5,0,3.25,1.54c1.68,3.54,3.42,7,5,10.64l4.51,10.62c.31.72.79,1.63,1.5.75a7.85,7.85,0,0,0,1-2.21q2.47-6.44,5.3-12.71C933.66,337.79,934.28,336.45,934.91,335.11Z" transform="translate(-453.06 -278.21)"/><path class="cls-3" d="M875.47,347.25c-1.31,0-2.61,0-3.92,0-1,0-2.5.42-3.15-.69A3.52,3.52,0,0,1,868,345c-.09-1.24-.5-6.15,1.5-6.15,3.46,0,6.93-.08,10.39,0a7.58,7.58,0,0,1,2.13.26c1.33.41,3,2.29,3,3.76-.13,2.3-2.07,4.38-4.13,4.4Z" transform="translate(-453.06 -278.21)"/><path class="cls-1" d="M694.35,365.83c-1.42-2.44-2.83-4.89-4.25-7.34l-2.64-4.56-1.27-2.18a8.28,8.28,0,0,0-1.21-2.09c-.18-.15-.42-.46-.68-.25a.62.62,0,0,0-.16.51v26.13a1.92,1.92,0,0,0,.18,1,1.88,1.88,0,0,0,1.36.67,28.36,28.36,0,0,0,7,.28c1-.08,2.24-.08,2.66.82a2.32,2.32,0,0,1,.15,1l0,5.16a1.81,1.81,0,0,1-.31,1.24,1.78,1.78,0,0,1-1.32.36l-17.26,0c-.4,0-.87,0-1.07-.39a1.17,1.17,0,0,1-.1-.59c.14-14,.1-28,.07-42q0-4.14,0-8.28v-3c0-.81.18-1.57,1.1-1.63,2.25-.15,4.51.17,6.76-.12a2,2,0,0,1,2,1.14q3.12,5.4,6.2,10.81,3.68,6.43,7.38,12.86,1.86,3.26,3.71,6.54l1.83,3.28a18,18,0,0,1,1.64,2.89c.08.26.43.33.71.22s.45-.53.45-.91v-5c0-6.91,0-13.82.06-20.73,0-1.28-.47-1.86-1.66-1.93a30.55,30.55,0,0,0-5.41,0c-1.72.19-2.73-.63-2.73-2.35s0-3.25,0-4.88c0-1.17.47-1.78,1.68-1.76l15.17.2c1.33,0,1.31,1.07,1.3,2.1v52c0,1.67-1.21,1.58-2.53,1.57l-5.7,0a1.64,1.64,0,0,1-.88-.17,1.7,1.7,0,0,1-.45-.55c-3.6-6-7.14-12.1-10.67-18.18C695,367,694.69,366.43,694.35,365.83Z" transform="translate(-453.06 -278.21)"/><path class="cls-2" d="M743.05,386.56c-6.13,0-12.27,0-18.4,0-1.23,0-1.7-.34-1.66-1.61.06-1.84,0-3.69-.07-5.54,0-1.08.48-1.46,1.46-1.46,11.77,0,23.53-.07,35.3,0,4.27,0,3.5-.11,3.62,3.57,0,1.17,0,2.35,0,3.52s-.35,1.6-1.58,1.58c-6.23-.05-12.45,0-18.68,0Z" transform="translate(-453.06 -278.21)"/><path class="cls-2" d="M743.13,330.68l18.38-.07a2.5,2.5,0,0,1,1.09.16c1,.46,1,1.84,1,2.75,0,1.53.43,5-1.15,5.9a2.47,2.47,0,0,1-1.23.24c-11.73.21-23.49.14-35.22.14a4.58,4.58,0,0,1-2.33-.37c-1.17-.66-.84-2-.77-3.08a16.05,16.05,0,0,0-.06-2.94c-.17-1.49.09-2.67,1.85-2.68Z" transform="translate(-453.06 -278.21)"/><path class="cls-4" d="M923.77,417.21c.69.79.43,2.49.35,3.41-.24,2.84-.24,5.68-.29,8.52a3.56,3.56,0,0,1-.17,1.3c-.36.92-1.43,1.09-2.3,1.09-1.8,0-3.61,0-5.41,0a3,3,0,0,0-3.18,3c-.06,5.75,0,11.47.08,17.21a2,2,0,0,1-1.48,2.28,6,6,0,0,1-1.59.13l-5.51,0c-1.42,0-3.41.39-4.58-.63-.81-.62-.69-1.51-.66-2.36.18-4.37.19-8.72.15-13.09s.13-9-.54-13.41a37.84,37.84,0,0,0-.94-4.35,3,3,0,0,1-.18-1.36c.24-1.24,2.46-1.14,3.4-1.28,1.7-.25,3.41-.47,5.09-.86l2.88-.67c1.43-.34,2.12.16,2.31,1.62,0,.36,0,.72.07,1.08.22,1.42.77,1.77,2,1A21.32,21.32,0,0,1,919.9,417c1-.25,2.83-.67,3.74.1A.8.8,0,0,1,923.77,417.21Z" transform="translate(-453.06 -278.21)"/><path class="cls-2" d="M735,363.27h-6.83c-1.19,0-4.25.6-5-.51-.52-.74-.16-2.15-.15-3a27.63,27.63,0,0,0-.15-3.64c-.11-1.14,0-2.15,1.39-2.14q10.69,0,21.39,0c1.16,0,1.85.53,1.91,1.64a38.47,38.47,0,0,1-.07,6.35c-.13,1.08-.87,1.31-1.87,1.31Z" transform="translate(-453.06 -278.21)"/><path class="cls-4" d="M749,453c-.5.7-1.68.42-3,.28a9.71,9.71,0,0,1-2.6-.64c-3.07-1.26-6.11.13-9.11.86a41.11,41.11,0,0,1-10,1.22c-5.82-.06-12.06-1.67-16.69-5.32a25.82,25.82,0,0,1-8.38-12.65,30.82,30.82,0,0,1-1.43-9.58c.07-9,3.68-18.07,11-23.56a21.89,21.89,0,0,1,7-3.55,29.25,29.25,0,0,1,14.37-.67c4.71,1,8.93,2.85,12.17,6.37,1.47,1.6,3.14,2.75,1.75,5a39.64,39.64,0,0,1-5.8,7.24,1.87,1.87,0,0,1-.71.5c-1.13.37-2.92-1.9-3.77-2.52a18.26,18.26,0,0,0-4.59-2.5,12.46,12.46,0,0,0-9.87.45,11.34,11.34,0,0,0-2.12,1.38,13.44,13.44,0,0,0-4.4,7.56c-1.41,6.51.35,13.63,6.49,16.92,4.06,2.17,9.53,1.47,13.68-.14a2.31,2.31,0,0,0,1.38-1,2.36,2.36,0,0,0,.07-1.21c0-3.41-.82-6.93-1.11-10.33-.15-1.72,0-1.78,1.69-1.77,4,0,8.09,0,12.13,0,1.86,0,1.74,1.94,1.65,3.27-.17,2.44-.28,4.88-.31,7.32q-.06,4.08.17,8.15c.13,2.46.63,5,.63,7.44A2.27,2.27,0,0,1,749,453Z" transform="translate(-453.06 -278.21)"/><path class="cls-4" d="M887.49,418.81a17.54,17.54,0,0,1,5.45,8.41c.74,2.43,2.14,6.89.19,9.08-1.82,2-5.57,1.56-8,1.75l-10.46.83c-1.41.11-4.71.92-3.15,2.94,1.17,1.86,3.16,2.35,5,2.65a13,13,0,0,0,5.62-.33c1.94-.55,3.19-1.74,4.92-2.64a2.61,2.61,0,0,1,1.14-.35c1.09,0,1.72,1.59,2.18,2.36a20.78,20.78,0,0,1,2.24,4.44c1.07,3.54-5.65,5.78-8.11,6.31-9.72,2.09-22.12-.82-25.74-11.14-.07-.18-.12-.36-.18-.54a23.54,23.54,0,0,1,1.81-19c4.71-8,15.72-11.06,24-6.77A17,17,0,0,1,887.49,418.81Z" transform="translate(-453.06 -278.21)"/><path class="cls-4" d="M827.42,445.84a23.36,23.36,0,0,1-1.22-2.64,23,23,0,0,1-1.29-11.37,19.49,19.49,0,0,1,5.68-11.53,19.19,19.19,0,0,1,16.3-4.84,20.19,20.19,0,0,1,6.67,2c1.76,1,.91,2.44.45,4l-1.62,5.64a1.58,1.58,0,0,1-.42.81,1.65,1.65,0,0,1-1.33.17c-3.7-.63-8.92-1.69-11.22,2.24-2.52,4.29-1.48,9.78,3.62,11.68a8.6,8.6,0,0,0,6.47-.2c2.7-1.2,3.09-1,3.63,1.89.41,2.2.85,4.4,1.27,6.6a2.07,2.07,0,0,1-1.32,2.64c-4.42,1.42-8.88,2.61-13.6,1.37-3.42-.89-6.77-2.22-9.3-4.77A17.19,17.19,0,0,1,827.42,445.84Z" transform="translate(-453.06 -278.21)"/><path class="cls-4" d="M818.18,423.54a20.12,20.12,0,0,1,3,8.4c.08.59.14,1.2.18,1.8a21.4,21.4,0,0,1-3.19,12.6,18.21,18.21,0,0,1-9.79,7.64c-.48.16-1,.3-1.48.42a20.54,20.54,0,0,1-18.14-4.66c-3.14-2.77-4.87-7-5.49-11.07a23.44,23.44,0,0,1,.13-7.75,19.22,19.22,0,0,1,8.12-12.66c4.16-2.58,8.76-2.57,13.41-2.35a16.6,16.6,0,0,1,10.54,4.47A16.39,16.39,0,0,1,818.18,423.54Z" transform="translate(-453.06 -278.21)"/><path class="cls-4" d="M768.79,443.67l0,8.69a1.94,1.94,0,0,1-.26,1.19A1.91,1.91,0,0,1,767,454h-8.68c-.91,0-2.22-.11-2.68-1.06-.54-1.12-.23-3.21-.23-4.44,0-9.67.66-19.47-1.48-28.9a1,1,0,0,1,1-1.5l10.15-1.75a2.14,2.14,0,0,1,1.62.15,1.77,1.77,0,0,1,.61,1.41,5.54,5.54,0,0,0,.14,1.58c.38,1.13,1.3.86,2.08.37a17.76,17.76,0,0,1,9.09-3.05c.57,0,1.24.1,1.49.61a1.66,1.66,0,0,1,.11.77L780,429.27a2.55,2.55,0,0,1-.43,1.64,2.48,2.48,0,0,1-1.89.56l-4.65,0a4.8,4.8,0,0,0-3.36.91c-.89.87-.94,2.26-.94,3.5Z" transform="translate(-453.06 -278.21)"/><path class="cls-3" d="M807.27,428c4.63,3.54,4.46,11.62-.31,14.91a8.45,8.45,0,0,1-11.59-2.24c-1.57-2.31-1.63-5.8-.85-8.4a8.94,8.94,0,0,1,3-4.49c2.28-1.73,6.11-1.75,8.59-.49A7.58,7.58,0,0,1,807.27,428Z" transform="translate(-453.06 -278.21)"/><path class="cls-1" d="M628.87,293.19a25.62,25.62,0,0,1,9.55,13.48c3.1,10.73-1.13,22.24-6.87,31.82-5.61,9.37-11.42,18.57-16.87,28.08-.8,1.39-1.91,3-3.52,2.94-1.4,0-2.42-1.31-3.22-2.46-5.45-7.88-9.91-16.31-14.88-24.47-4.73-7.77-10.24-15.68-11-25-1.58-18.36,16.73-32.66,34.21-29.72A29.54,29.54,0,0,1,628.87,293.19Z" transform="translate(-453.06 -278.21)"/><path class="cls-4" d="M476.45,386,493,307.11l.16-.55.2-.52.22-.38.17-.17.23-.13.28-.08.82-.07h24.95l6.24,0h3.12l.3,0H530l.16,0h.19l.11,0,.15,0,.14,0,.09,0,.79.18.3.09.22.07.32.11,1.86.86.52.25.44.27.18.12.1.07.21.16.11.09.12.09.12.1.22.19.5.46.29.27.26.25.1.1.1.1.14.13.2.18.12.11.16.15.34.33.18.18.37.39.46.5.18.22.45.55.13.16.14.18.09.13.37.5.27.38.32.49.23.36.17.28.35.6.21.36.29.52.27.52.28.57.24.52.22.53.18.5.17.56.18.67.15.76,0,.39.07.55v.19l0,.26,0,.58v1.41l0,.35,0,.18,0,.17,0,.35-.11.72-.11.53,0,.2,0,.22-.05.23-.21.77-.11.41-.19.63-.12.39-1.16,4.7-.82,4-.66,3-1.42,7.15-1.08,4.51-2.7,13.09-1.3,6.27-1.13,5-2.66,12.41-1,4.47-.65,3.32-3.79,17.33-1.36,6.68-.7,3.91-.09.77-.08.87,0,.73v1.57l0,.53.1,1.36.07.61.08.6.16,1,.2,1.08.54,2.45.63,2.43.27,1,.17.53.17.46.29.73.2.49.19.43.17.41.36.87.33.91.14.32.18.37.14.28.31.61.24.46.75,1.36.55.94.53.85.36.56.42.63.76,1.09.95,1.28.9,1.14.91,1.08.65.74,1,1.07.75.76.85.81,1,.82,1.45,1.1,1.27.95s1.92,2,6.66,3.44a55.32,55.32,0,0,0,8.14,1.89l2.24.35,3.09.11h58.31l3.22-.21.64-.15.38-.17.42-.37.14-.23.1-.32,16.5-79,.15-.85,0-.44-.12-.38-.3-.3-.29-.08-.66,0H586.3l-.4,0-.35.07-.29.11-.15.1-.18.18-.13.24-.08.23s-5,24.52-4.59,25.58V412l0,.21a.75.75,0,0,1,.09.25c0,.18.43.37.43.37l.29.1,1,.2.83.14,1.74.19,20.25.17h.88l.16,0,.3.07.18.06.23.13.08.09.06.1,0,.12s-5.24,22.51-4.76,24.38l0,.32,0,.14-.11.15-.18.1-.31.06-1.4,0h-31l-1.47,0-1.29-.09-.52-.06L564.1,439l-1-.3-1.29-.51-1.48-.73-1-.6-1-.74-1.21-1-1.62-2-1.46-2L553,429.47l-.74-1.7-.31-1.45-.07-1,.18-1.63,15.66-76.46s5.49-21,5.45-23.16,0-10,0-10l-.11-2.62-.33-2.27-.74-3-.81-2.69-1-2.1-3-5.57-.73-1.16L561,289.08l-3.14-2.5-3.6-2.85-3-1.83-1-.52-1.88-.85-2.38-.84-2.52-.72-1.37-.28-1.54-.22-2.27-.19-4.28-.07H473.77l-.38,0-.42.06-.4.14-.17.12-.11.09-.11.13L472,279l-.07.15-.05.14-.08.26,0,.26-.13.87s-18.89,86-18.36,87.07l-.08.68-.16,1.54v1l.1,1.83.13.89.43,1.71.47,1.22.72,1.37,1,1.41,1,1.26.92,1,1.37,1.28.93.75,1,.71,1,.6.67.37,1.15.56,1.4.57.75.25,1.41.39,1.8.35,1.34.18,1.15.1h1.31l.72-.05.6-.09.63-.12.81-.23.25-.14.16-.2.13-.31Z" transform="translate(-453.06 -278.21)"/><circle class="cls-1" cx="98.77" cy="211.55" r="14.81"/><circle class="cls-1" cx="150.06" cy="211.55" r="14.81"/><polyline class="cls-5" points="222.14 107.89 222.37 105.61 222.51 103.3 222.33 67.08 222.4 56.92 222.34 56.08 222.28 55.35 222.26 54.37 222.29 53.97 222.4 53.38 222.51 53.05 222.71 52.73 222.99 52.54 223.17 52.48 223.48 52.44 224.36 52.4 226.2 52.4 228.06 52.44 229.88 52.36 230.62 52.3 231.12 52.43 231.54 52.67 231.85 52.95 232.28 53.56 234.15 56.79 238.74 64.81 240.37 67.69 241.26 69.27 251.85 88.09 252.99 89.84 253.28 90.09 253.69 90.05 254.1 89.6 254.1 76.85 254.19 64.81 254.19 63.03 254.14 62.69 253.9 62.09 253.64 61.81 253.37 61.66 252.73 61.49 250.96 61.39 249.55 61.36 247.65 61.44 247.14 61.49 246.74 61.51 246.13 61.47 245.59 61.31 245.12 61.02 244.83 60.7 244.63 60.33 244.47 59.81 244.41 58.47 244.41 56.47 244.4 54.17 244.43 53.77 244.57 53.26 244.78 52.93 245.14 52.67 245.53 52.54 246.09 52.49 261.26 52.69 261.46 52.7 261.73 52.75 261.92 52.81 262.11 52.91 262.3 53.09 262.46 53.37 262.51 53.52 262.55 53.74 262.57 54.41 262.57 60.56 262.56 67.53 262.55 74.04 262.55 79.2 262.55 92.27 262.57 107.03 262.55 107.21 262.52 107.46 262.43 107.79 262.3 107.99 262.1 108.17 261.75 108.31 261.48 108.35 260.93 108.35"/><path class="cls-6" d="M870.8,432c-.85,0-1.53-.24-1.5-1.45a8.25,8.25,0,0,1,7-7.65c4.06-.53,7.62,3.29,7.6,7.25,0,1.73-3,1.4-4.05,1.41C876.8,431.63,873.79,432,870.8,432Z" transform="translate(-453.06 -278.21)"/><path class="cls-7" d="M623,317.39c-.19,15.88-22.36,16.44-24.32,1.34A12.6,12.6,0,0,1,615.34,305c4.89,1.78,7.65,7.3,7.61,12.29Z" transform="translate(-453.06 -278.21)"/></svg>